<svg xmlns="http://www.w3.org/2000/svg" width="128" height="128" viewBox="0 0 64 64" fill="none"><rect x="6" y="8" width="52" height="52" rx="12" fill="#111827" opacity="0.18"/><rect x="6" y="6" width="52" height="52" rx="12" fill="#FF5DB1" stroke="#111827" stroke-width="3.5" />
    <path d="M32 18 C38 24 42 28 42 34 C42 41 37 46 32 46 C27 46 22 41 22 34 C22 28 26 24 32 18 Z" stroke="#111827" stroke-width="3.5" stroke-linecap="round" stroke-linejoin="round" fill="#FFFFFF"/>
    <path d="M32 26 C34 29 36 31 36 34 C36 37 34 40 32 40 C30 40 28 37 28 34 C28 31 30 29 32 26 Z" stroke="#111827" stroke-width="3.5" stroke-linecap="round" stroke-linejoin="round" fill="none"/>
    </svg>